<svg width="259" height="226" viewBox="0 0 259 226" fill="none" xmlns="http://www.w3.org/2000/svg">
<path d="M57.7919 79.7642C55.9267 81.4059 53.8898 82.4116 51.7528 82.9977M51.7528 82.9977C42.7305 85.472 31.92 80.4648 24.6751 84.2454C15.7141 88.9214 -3.76627 87.7524 5.38951 66.9053C10.1468 56.0731 21.9303 53.262 32.8562 48.9427M51.7528 82.9977C55.7788 92.311 63.7919 117.952 63.6361 146.007C63.4802 174.063 63.5711 209.133 63.6361 223.161H80.9736M80.9736 223.161C80.6489 215.888 80.545 197.404 82.7268 181.662C84.0865 171.852 88.109 159.426 91.8256 148.345M80.9736 223.161H90.1294C90.1294 199.314 96.7008 163.228 99.9866 148.166M99.0903 123.017C98.9926 127.414 95.5639 137.2 91.8256 148.345M91.8256 148.345C93.7592 148.374 96.5175 148.328 99.9866 148.166M157.142 140.552C132.694 145.636 112.046 147.602 99.9866 148.166M157.142 140.552C154.181 136.5 151.752 127.044 150.908 122.822M157.142 140.552C161.817 146.007 169.999 154.775 181.882 166.27C191.388 175.466 188.57 207.77 185.973 222.772M157.142 140.552C156.687 144.189 157.765 152.944 165.713 158.866C175.648 166.27 182.271 185.364 178.96 222.772H185.973M185.973 222.772H200.193C206.037 209.718 216.635 180.727 212.271 169.193C207.616 156.89 202.679 156.22 204.236 148.54M73.5638 32.8095C71.6531 38.1446 68.4365 44.1126 66.1685 47.8117C51.6756 68.2302 61.8177 70.6071 68.7003 69.2432C69.2847 89.5059 81.3626 83.2712 87.5963 81.7126C93.83 80.1539 105.713 88.3369 117.986 88.7266C119.878 88.7866 122.706 88.7217 126.167 88.5716M73.5638 32.8095C75.209 28.2158 75.8859 24.0914 74.1554 22.2886C71.661 19.6898 66.5048 25.854 61.8822 32.1701M73.5638 32.8095C82.5171 29.8843 91.8256 36.901 84.4794 45.6684C96.631 45.4171 98.4657 49.327 97.3365 59.8913C108.156 58.4745 111.112 60.9223 109.414 72.5554C123.941 72.3752 126.777 76.5601 126.167 88.5716M126.167 88.5716C145.155 87.7485 183.203 84.3656 190.453 85.0247C192.472 85.2084 194.751 85.9545 197.076 87.1586M42.986 45.5308C48.4155 43.9973 52.3957 43.3305 53.1165 43.3305C54.2069 43.3305 57.8407 37.6922 61.8822 32.1701M42.986 45.5308C39.956 46.3866 36.4745 47.5123 32.8562 48.9427M42.986 45.5308L39.3955 38.6545M32.8562 48.9427L20.7784 3L39.3955 38.6545M39.3955 38.6545C47.7066 31.9275 52.3455 28.0095 61.8822 32.1701M197.076 87.1586C204.617 91.0647 212.638 99.7905 213.83 109.769C215.39 122.822 210.324 131.395 205.649 143.864C204.963 145.693 204.503 147.22 204.236 148.54M197.076 87.1586C207.206 72.5554 226.851 69.808 226.491 87.1586C243.322 89.7782 250.57 92.3717 241.686 108.21C262.336 106.262 260.972 144.838 235.453 140.552C234.614 156.369 221.816 155.554 217.531 143.864C215.193 150.294 210.228 150.936 204.236 148.54" stroke="#181818" stroke-width="4.2833" stroke-linecap="round" stroke-linejoin="round"/>
<circle r="3.28386" transform="matrix(-1 0 0 1 42.8347 56.2558)" fill="#181818"/>
<ellipse rx="1.85609" ry="1.99887" transform="matrix(-1 0 0 1 12.566 70.1048)" fill="#181818"/>
</svg>
